# xmcd
#
# Track frame offsets:
# 150
# 18695
# 35248
# 52325
# 66523
# 81643
# 97488
# 116188
# 132312
# 148462
# 165556
# 181714
# 192935
# 208188
# 226800
# 245868
# 269142
# 286594
# 304448
# 320680
# 336815
#
# Disc length: 4679 seconds
#
#
# Revision: 1
# Processed by: cddbd v1.5.2PL0 Copyright (c) Steve Scherf et al.
# Submitted via: FreeRIP 2.35 
#
DISCID=68124515
DTITLE=Dazadi - Milakas #6
DYEAR=2009
DGENRE=Country
TTITLE0=Baltie Laci - Par Baikala drumajam stepem
TTITLE1=Kantoris 04 - Viena Zvaigzne
TTITLE2=Inga un Normunds - Tur aiz kalna
TTITLE3=Harijs and Santa - Gabalins no sirds
TTITLE4=Tervete - Krustimi
TTITLE5=Dakota - Vis vel bus
TTITLE6=Jurkant - Draugs uzdziedi
TTITLE7=Klaidonis - Un kluse zvans
TTITLE8=Muiza - Manai pilsetai
TTITLE9=N.rutulis - Velreiz majas
TTITLE10=Flora - Atkal list
TTITLE11=Latgales damu pops - Valodze
TTITLE12=Sandra - Gundegas
TTITLE13=A.Rullis and Emburgas Zeni - Dzives Maldi
TTITLE14=V.Tilciks - Visam savs laiks
TTITLE15=Tequila Band - Cest la vie
TTITLE16=Zvaigznu lietus - Vasaras sapnis
TTITLE17=Zelli - Rits bez veja
TTITLE18=Apvedcels - Kad ziedeja ievas
TTITLE19=Lauku Muzikanti - Pari okeanam
TTITLE20=Patriot LG - daugavena
EXTD=
EXTT0=
EXTT1=
EXTT2=
EXTT3=
EXTT4=
EXTT5=
EXTT6=
EXTT7=
EXTT8=
EXTT9=
EXTT10=
EXTT11=
EXTT12=
EXTT13=
EXTT14=
EXTT15=
EXTT16=
EXTT17=
EXTT18=
EXTT19=
EXTT20=
PLAYORDER=
